# xmcd
#
# Track frame offsets:
#	150
#	16048
#	31173
#	44765
#	60041
#	79227
#	98459
#	118185
#	130540
#	146077
#	169871
#	181926
#
# Disc length: 2787
#
# Revision: 7
# Processed by: cddbd v1.5.1PL0 Copyright (c) Steve Scherf et al.
# Submitted via: AudioConverter v4.05 Copyright (c) Dennis Rebentrost
# Normalized: r6:TRMNUM
#
DISCID=8f0ae10c
DTITLE=Bersuit Vergarabat - Libertinaje
DYEAR=1998
DGENRE=
TTITLE0=Yo tomo
TTITLE1=A los tambores
TTITLE2=De onda
TTITLE3=Se viene
TTITLE4=Murguita del sur
TTITLE5=Sr. Cobranza
TTITLE6=Vuelos
TTITLE7=Gente de mierdas
TTITLE8=Sincerebro
TTITLE9=A mar_a de Deux
TTITLE10=C. S. M.
TTITLE11=Qu_ pas_?
EXTD=
EXTT0=
EXTT1=
EXTT2=
EXTT3=
EXTT4=
EXTT5=
EXTT6=
EXTT7=
EXTT8=
EXTT9=
EXTT10=
EXTT11=
PLAYORDER=
